

<svg xmlns="http://www.w3.org/2000/svg" viewBox="0 0 512 640"  width="800px" height="800px"><title>Music &amp;amp; Instrument Vol.2</title><g><path d="M63,306.19A23.1,23.1,0,1,1,86.1,283.1,23.12,23.12,0,0,1,63,306.19ZM63,270a13.1,13.1,0,1,0,13.1,13.1A13.11,13.11,0,0,0,63,270Z"/><path d="M113,306.19a23.1,23.1,0,1,1,23.1-23.09A23.12,23.12,0,0,1,113,306.19ZM113,270a13.1,13.1,0,1,0,13.1,13.1A13.11,13.11,0,0,0,113,270Z"/><path d="M164,306.19a23.1,23.1,0,1,1,23.1-23.09A23.12,23.12,0,0,1,164,306.19ZM164,270a13.1,13.1,0,1,0,13.1,13.1A13.11,13.11,0,0,0,164,270Z"/><path d="M214,306.19a23.1,23.1,0,1,1,23.1-23.09A23.12,23.12,0,0,1,214,306.19ZM214,270a13.1,13.1,0,1,0,13.1,13.1A13.11,13.11,0,0,0,214,270Z"/><path d="M265,306.19a23.1,23.1,0,1,1,23.1-23.09A23.12,23.12,0,0,1,265,306.19ZM265,270a13.1,13.1,0,1,0,13.1,13.1A13.11,13.11,0,0,0,265,270Z"/><path d="M315,306.19a23.1,23.1,0,1,1,23.1-23.09A23.12,23.12,0,0,1,315,306.19ZM315,270a13.1,13.1,0,1,0,13.1,13.1A13.11,13.11,0,0,0,315,270Z"/><path d="M63,247.19A23.1,23.1,0,1,1,86.1,224.1,23.12,23.12,0,0,1,63,247.19ZM63,211a13.1,13.1,0,1,0,13.1,13.1A13.11,13.11,0,0,0,63,211Z"/><path d="M113,247.19a23.1,23.1,0,1,1,23.1-23.09A23.12,23.12,0,0,1,113,247.19ZM113,211a13.1,13.1,0,1,0,13.1,13.1A13.11,13.11,0,0,0,113,211Z"/><path d="M164,247.19a23.1,23.1,0,1,1,23.1-23.09A23.12,23.12,0,0,1,164,247.19ZM164,211a13.1,13.1,0,1,0,13.1,13.1A13.11,13.11,0,0,0,164,211Z"/><path d="M214,247.19a23.1,23.1,0,1,1,23.1-23.09A23.12,23.12,0,0,1,214,247.19ZM214,211a13.1,13.1,0,1,0,13.1,13.1A13.11,13.11,0,0,0,214,211Z"/><path d="M265,247.19a23.1,23.1,0,1,1,23.1-23.09A23.12,23.12,0,0,1,265,247.19ZM265,211a13.1,13.1,0,1,0,13.1,13.1A13.11,13.11,0,0,0,265,211Z"/><path d="M315,247.19a23.1,23.1,0,1,1,23.1-23.09A23.12,23.12,0,0,1,315,247.19ZM315,211a13.1,13.1,0,1,0,13.1,13.1A13.11,13.11,0,0,0,315,211Z"/><path d="M63,187.19A23.1,23.1,0,1,1,86.1,164.1,23.12,23.12,0,0,1,63,187.19ZM63,151a13.1,13.1,0,1,0,13.1,13.1A13.11,13.11,0,0,0,63,151Z"/><path d="M113,187.19a23.1,23.1,0,1,1,23.1-23.09A23.12,23.12,0,0,1,113,187.19ZM113,151a13.1,13.1,0,1,0,13.1,13.1A13.11,13.11,0,0,0,113,151Z"/><path d="M164,187.19a23.1,23.1,0,1,1,23.1-23.09A23.12,23.12,0,0,1,164,187.19ZM164,151a13.1,13.1,0,1,0,13.1,13.1A13.11,13.11,0,0,0,164,151Z"/><path d="M214,187.19a23.1,23.1,0,1,1,23.1-23.09A23.12,23.12,0,0,1,214,187.19ZM214,151a13.1,13.1,0,1,0,13.1,13.1A13.11,13.11,0,0,0,214,151Z"/><path d="M265,187.19a23.1,23.1,0,1,1,23.1-23.09A23.12,23.12,0,0,1,265,187.19ZM265,151a13.1,13.1,0,1,0,13.1,13.1A13.11,13.11,0,0,0,265,151Z"/><path d="M315,187.19a23.1,23.1,0,1,1,23.1-23.09A23.12,23.12,0,0,1,315,187.19ZM315,151a13.1,13.1,0,1,0,13.1,13.1A13.11,13.11,0,0,0,315,151Z"/><path d="M315,92a23.1,23.1,0,1,1,23.1-23.1A23.12,23.12,0,0,1,315,92Zm0-36.19A13.1,13.1,0,1,0,328.1,68.9,13.11,13.11,0,0,0,315,55.81Z"/><path d="M265,92a23.1,23.1,0,1,1,23.1-23.1A23.12,23.12,0,0,1,265,92Zm0-36.19A13.1,13.1,0,1,0,278.1,68.9,13.11,13.11,0,0,0,265,55.81Z"/><path d="M214,92a23.1,23.1,0,1,1,23.1-23.1A23.12,23.12,0,0,1,214,92Zm0-36.19A13.1,13.1,0,1,0,227.1,68.9,13.11,13.11,0,0,0,214,55.81Z"/><path d="M164,92a23.1,23.1,0,1,1,23.1-23.1A23.12,23.12,0,0,1,164,92Zm0-36.19A13.1,13.1,0,1,0,177.1,68.9,13.11,13.11,0,0,0,164,55.81Z"/><path d="M113,92a23.1,23.1,0,1,1,23.1-23.1A23.12,23.12,0,0,1,113,92Zm0-36.19A13.1,13.1,0,1,0,126.1,68.9,13.11,13.11,0,0,0,113,55.81Z"/><path d="M63,92A23.1,23.1,0,1,1,86.1,68.9,23.12,23.12,0,0,1,63,92Zm0-36.19A13.1,13.1,0,1,0,76.1,68.9,13.11,13.11,0,0,0,63,55.81Z"/><path d="M76,445H50a5,5,0,0,1,0-10H76a5,5,0,0,1,0,10Z"/><path d="M67.75,466h-9.5a15,15,0,0,1-15-15V429a15,15,0,0,1,15-15h9.5a15,15,0,0,1,15,15v22A15,15,0,0,1,67.75,466Zm-9.5-42a5,5,0,0,0-5,5v22a5,5,0,0,0,5,5h9.5a5,5,0,0,0,5-5V429a5,5,0,0,0-5-5Z"/><path d="M126,407H100a5,5,0,0,1,0-10h26a5,5,0,0,1,0,10Z"/><path d="M117.75,428h-9.5a15,15,0,0,1-15-15V391a15,15,0,0,1,15-15h9.5a15,15,0,0,1,15,15v22A15,15,0,0,1,117.75,428Zm-9.5-42a5,5,0,0,0-5,5v22a5,5,0,0,0,5,5h9.5a5,5,0,0,0,5-5V391a5,5,0,0,0-5-5Z"/><path d="M177,424H151a5,5,0,0,1,0-10h26a5,5,0,0,1,0,10Z"/><path d="M168.75,445h-9.5a15,15,0,0,1-15-15V408a15,15,0,0,1,15-15h9.5a15,15,0,0,1,15,15v22A15,15,0,0,1,168.75,445Zm-9.5-42a5,5,0,0,0-5,5v22a5,5,0,0,0,5,5h9.5a5,5,0,0,0,5-5V408a5,5,0,0,0-5-5Z"/><path d="M227,445H201a5,5,0,0,1,0-10h26a5,5,0,0,1,0,10Z"/><path d="M218.75,466h-9.5a15,15,0,0,1-15-15V429a15,15,0,0,1,15-15h9.5a15,15,0,0,1,15,15v22A15,15,0,0,1,218.75,466Zm-9.5-42a5,5,0,0,0-5,5v22a5,5,0,0,0,5,5h9.5a5,5,0,0,0,5-5V429a5,5,0,0,0-5-5Z"/><path d="M278,445H252a5,5,0,0,1,0-10h26a5,5,0,0,1,0,10Z"/><path d="M269.75,466h-9.5a15,15,0,0,1-15-15V429a15,15,0,0,1,15-15h9.5a15,15,0,0,1,15,15v22A15,15,0,0,1,269.75,466Zm-9.5-42a5,5,0,0,0-5,5v22a5,5,0,0,0,5,5h9.5a5,5,0,0,0,5-5V429a5,5,0,0,0-5-5Z"/><path d="M330,445H304a5,5,0,0,1,0-10h26a5,5,0,0,1,0,10Z"/><path d="M321.75,466h-9.5a15,15,0,0,1-15-15V429a15,15,0,0,1,15-15h9.5a15,15,0,0,1,15,15v22A15,15,0,0,1,321.75,466Zm-9.5-42a5,5,0,0,0-5,5v22a5,5,0,0,0,5,5h9.5a5,5,0,0,0,5-5V429a5,5,0,0,0-5-5Z"/><path d="M397.75,466h-9.5a15,15,0,0,1-15-15V429a15,15,0,0,1,15-15h9.5a15,15,0,0,1,15,15v22A15,15,0,0,1,397.75,466Zm-9.5-42a5,5,0,0,0-5,5v22a5,5,0,0,0,5,5h9.5a5,5,0,0,0,5-5V429a5,5,0,0,0-5-5Z"/><path d="M449.75,466h-9.5a15,15,0,0,1-15-15V429a15,15,0,0,1,15-15h9.5a15,15,0,0,1,15,15v22A15,15,0,0,1,449.75,466Zm-9.5-42a5,5,0,0,0-5,5v22a5,5,0,0,0,5,5h9.5a5,5,0,0,0,5-5V429a5,5,0,0,0-5-5Z"/><path d="M404,308H357a5,5,0,0,1-5-5V278a5,5,0,0,1,5-5h47a5,5,0,0,1,5,5v25A5,5,0,0,1,404,308Zm-42-10h37V283H362Z"/><path d="M469,308H422a5,5,0,0,1-5-5V278a5,5,0,0,1,5-5h47a5,5,0,0,1,5,5v25A5,5,0,0,1,469,308Zm-42-10h37V283H427Z"/><path d="M404,262.8H357a5,5,0,0,1-5-5v-25a5,5,0,0,1,5-5h47a5,5,0,0,1,5,5v25A5,5,0,0,1,404,262.8Zm-42-10h37v-15H362Z"/><path d="M469,262.8H422a5,5,0,0,1-5-5v-25a5,5,0,0,1,5-5h47a5,5,0,0,1,5,5v25A5,5,0,0,1,469,262.8Zm-42-10h37v-15H427Z"/><path d="M404,217.6H357a5,5,0,0,1-5-5v-25a5,5,0,0,1,5-5h47a5,5,0,0,1,5,5v25A5,5,0,0,1,404,217.6Zm-42-10h37v-15H362Z"/><path d="M469,217.6H422a5,5,0,0,1-5-5v-25a5,5,0,0,1,5-5h47a5,5,0,0,1,5,5v25A5,5,0,0,1,469,217.6Zm-42-10h37v-15H427Z"/><path d="M404,172.4H357a5,5,0,0,1-5-5v-25a5,5,0,0,1,5-5h47a5,5,0,0,1,5,5v25A5,5,0,0,1,404,172.4Zm-42-10h37v-15H362Z"/><path d="M469,172.4H422a5,5,0,0,1-5-5v-25a5,5,0,0,1,5-5h47a5,5,0,0,1,5,5v25A5,5,0,0,1,469,172.4Zm-42-10h37v-15H427Z"/><path d="M404,127.2H357a5,5,0,0,1-5-5v-25a5,5,0,0,1,5-5h47a5,5,0,0,1,5,5v25A5,5,0,0,1,404,127.2Zm-42-10h37v-15H362Z"/><path d="M469,127.2H422a5,5,0,0,1-5-5v-25a5,5,0,0,1,5-5h47a5,5,0,0,1,5,5v25A5,5,0,0,1,469,127.2Zm-42-10h37v-15H427Z"/><path d="M404,82H357a5,5,0,0,1-5-5V52a5,5,0,0,1,5-5h47a5,5,0,0,1,5,5V77A5,5,0,0,1,404,82ZM362,72h37V57H362Z"/><path d="M469,82H422a5,5,0,0,1-5-5V52a5,5,0,0,1,5-5h47a5,5,0,0,1,5,5V77A5,5,0,0,1,469,82ZM427,72h37V57H427Z"/><path d="M494,337H17a5,5,0,0,1,0-10H494a5,5,0,0,1,0,10Z"/><path d="M496,501H15a5,5,0,0,1-5-5V15a5,5,0,0,1,5-5H496a5,5,0,0,1,5,5V496A5,5,0,0,1,496,501ZM20,491H491V20H20Z"/><path d="M63,474a5,5,0,0,1-5-5v-8a5,5,0,0,1,10,0v8A5,5,0,0,1,63,474Z"/><path d="M63,423.17a5,5,0,0,1-5-5V360a5,5,0,0,1,10,0v58.17A5,5,0,0,1,63,423.17Z"/><path d="M113.33,474a5,5,0,0,1-5-5V423a5,5,0,0,1,10,0v46A5,5,0,0,1,113.33,474Z"/><path d="M113.33,385a5,5,0,0,1-5-5V360a5,5,0,0,1,10,0v20A5,5,0,0,1,113.33,385Z"/><path d="M214,474a5,5,0,0,1-5-5v-7a5,5,0,0,1,10,0v7A5,5,0,0,1,214,474Z"/><path d="M214,422.88a5,5,0,0,1-5-5V360a5,5,0,0,1,10,0v57.88A5,5,0,0,1,214,422.88Z"/><path d="M163.67,474a5,5,0,0,1-5-5V440.88a5,5,0,0,1,10,0V469A5,5,0,0,1,163.67,474Z"/><path d="M163.67,401.62a5,5,0,0,1-5-5V360a5,5,0,0,1,10,0v36.62A5,5,0,0,1,163.67,401.62Z"/><path d="M317,474a5,5,0,0,1-5-5v-7a5,5,0,0,1,10,0v7A5,5,0,0,1,317,474Z"/><path d="M317,423.33a5,5,0,0,1-5-5V360a5,5,0,0,1,10,0v58.33A5,5,0,0,1,317,423.33Z"/><path d="M264.67,474a5,5,0,0,1-5-5v-7a5,5,0,0,1,10,0v7A5,5,0,0,1,264.67,474Z"/><path d="M264.67,422.88a5,5,0,0,1-5-5V360a5,5,0,0,1,10,0v57.88A5,5,0,0,1,264.67,422.88Z"/><path d="M444,474a5,5,0,0,1-5-5v-8a5,5,0,0,1,10,0v8A5,5,0,0,1,444,474Z"/><path d="M444,423a5,5,0,0,1-5-5V360a5,5,0,0,1,10,0v58A5,5,0,0,1,444,423Z"/><path d="M393.67,474a5,5,0,0,1-5-5v-7.17a5,5,0,0,1,10,0V469A5,5,0,0,1,393.67,474Z"/><path d="M393.67,423a5,5,0,0,1-5-5V360a5,5,0,0,1,10,0v58A5,5,0,0,1,393.67,423Z"/><path d="M322,119h-1a5,5,0,0,1,0-10h1a5,5,0,0,1,0,10Zm-21,0h-1a5,5,0,0,1,0-10h1a5,5,0,0,1,0,10Zm-21,0h-1a5,5,0,0,1,0-10h1a5,5,0,0,1,0,10Zm-21,0h-1a5,5,0,0,1,0-10h1a5,5,0,0,1,0,10Zm-21,0h-1a5,5,0,0,1,0-10h1a5,5,0,0,1,0,10Zm-21,0h-1a5,5,0,0,1,0-10h1a5,5,0,0,1,0,10Zm-21,0h-1a5,5,0,0,1,0-10h1a5,5,0,0,1,0,10Zm-21,0h-1a5,5,0,0,1,0-10h1a5,5,0,0,1,0,10Zm-21,0h-1a5,5,0,0,1,0-10h1a5,5,0,0,1,0,10Zm-21,0h-1a5,5,0,0,1,0-10h1a5,5,0,0,1,0,10Zm-21,0h-1a5,5,0,0,1,0-10h1a5,5,0,0,1,0,10Zm-21,0H90a5,5,0,0,1,0-10h1a5,5,0,0,1,0,10Zm-21,0H69a5,5,0,0,1,0-10h1a5,5,0,0,1,0,10Zm-21,0H48a5,5,0,0,1,0-10h1a5,5,0,0,1,0,10Z"/><path d="M406,445H380a5,5,0,0,1,0-10h26a5,5,0,0,1,0,10Z"/><path d="M458,445H432a5,5,0,0,1,0-10h26a5,5,0,0,1,0,10Z"/></g></svg>