<?xml version="1.0" encoding="iso-8859-1"?>
<!-- Uploaded to: SVG Repo, www.svgrepo.com, Generator: SVG Repo Mixer Tools -->
<svg fill="#000000" height="800px" width="800px" version="1.1" id="Layer_1" xmlns="http://www.w3.org/2000/svg" xmlns:xlink="http://www.w3.org/1999/xlink" 
	 viewBox="0 0 512.001 512.001" xml:space="preserve">
<g>
	<g>
		<path d="M488.057,403.891l-8.428,8.428l-82.559-81.412c4.768-9.625,6.969-20.387,6.276-31.433
			c-1.041-16.586-8.442-31.741-20.841-42.676l-33.862-29.864c-23.862-21.045-59.492-20.385-82.58,0.421l21.602-97.032l-9.168-36.732
			l-23.885,29.373L229.36,236.393h-28.067l10.683-150.181l5.38,0.351l2.936-45.053l-45.053-2.936l-2.936,45.053l5.883,0.384
			l-10.839,152.382h-24.454l-17.263-131.052l5.033-0.637l-5.671-44.792L80.2,65.584l5.671,44.792l6.165-0.78l16.7,126.8H95.524
			c-4.096,0-8.125,0.289-12.086,0.791l-25.489-93.458l4.901-1.42L50.285,98.942L6.92,111.506l12.564,43.366l5.936-1.719
			l25.699,94.229C20.755,263.395,0,295.27,0,331.917v45.987c0,52.671,42.851,95.523,95.524,95.523h113.711
			c52.672,0,95.523-42.852,95.523-95.523c0-4.495,1.836-8.624,5.172-11.627c3.449-3.107,7.928-4.549,12.619-4.056
			c24.017,2.523,40.361-1.864,50.86-7.092l82.276,81.133l-8.261,8.261l23.944,23.944l40.634-40.634L488.057,403.891z"/>
	</g>
</g>
</svg>