<?xml version="1.0" encoding="iso-8859-1"?>
<!-- Uploaded to: SVG Repo, www.svgrepo.com, Generator: SVG Repo Mixer Tools -->
<svg fill="#000000" height="800px" width="800px" version="1.1" id="Layer_1" xmlns="http://www.w3.org/2000/svg" xmlns:xlink="http://www.w3.org/1999/xlink" 
	 viewBox="0 0 512 512" xml:space="preserve">
<g>
	<g>
		<path d="M498.565,13.467C490.01,4.912,478.616,0,466.48,0c-0.119,0-0.238,0-0.357,0c-12.128,0-23.477,4.735-31.991,13.25
			c-6.029,6.029-9.224,13.121-11.443,20.125l-39.562,39.562c-3.26,3.26-5.093,7.682-5.093,12.293s1.832,9.033,5.093,12.293
			l3.428,3.428L224.319,263.187c-54.497-42.362-133.52-38.521-183.569,11.526C14.488,300.975,0.026,335.89,0.026,373.028
			c0,29.118,8.893,56.869,25.39,80.153c0.808,1.575,1.853,3.055,3.164,4.366l0.278,0.278c3.644,4.716,7.608,9.234,11.892,13.517
			c4.288,4.289,8.791,8.236,13.472,11.846l0.323,0.323c1.357,1.357,2.895,2.434,4.533,3.251C82.971,503.584,111.013,512,139.065,512
			c35.599,0,71.213-13.556,98.314-40.659c26.261-26.26,40.723-61.175,40.723-98.314c0-31.279-10.261-60.981-29.188-85.263
			l162.227-162.227l3.427,3.427c3.395,3.396,7.843,5.093,12.293,5.093c4.448,0,8.899-1.701,12.293-5.096l39.563-39.565
			c7.004-2.22,14.038-5.422,20.066-11.451c8.598-8.598,13.282-20.1,13.19-32.361C511.882,33.446,507.12,22.023,498.565,13.467z
			 M212.793,446.756c-30.957,30.955-76.685,38.311-114.692,22.126l6.226-4.856c3.929-3.064,6.354-7.666,6.66-12.639
			c0.306-4.973-1.536-9.839-5.059-13.361l-31.86-31.859c-3.523-3.525-8.387-5.364-13.361-5.059c-4.973,0.307-9.576,2.731-12.64,6.66
			l-4.899,6.281c-5.475-12.796-8.369-26.682-8.369-41.019c0-27.85,10.845-54.034,30.539-73.728
			c20.327-20.327,47.027-30.49,73.728-30.49c26.702,0,53.402,10.163,73.729,30.49c19.693,19.694,30.539,45.878,30.539,73.728
			C243.332,400.88,232.487,427.063,212.793,446.756z M474.195,53.374c-1.816,1.816-6.785,3.163-9.175,3.811
			c-2.929,0.792-5.598,2.339-7.745,4.485l-30.415,30.414l-6.854-6.854l30.415-30.422c2.146-2.146,3.722-4.825,4.516-7.754
			c0.647-2.389,1.521-7.373,3.839-9.188c0-0.001,0-0.03,0-0.03c2.318-2.604,5.677-3.066,7.363-3.066c0.027,0,0.053,0,0.079,0
			c2.947,0,5.704,1.226,7.761,3.284c2.057,2.057,3.203,4.873,3.226,7.82C477.217,47.54,476.843,50.728,474.195,53.374z"/>
	</g>
</g>
<g>
	<g>
		<path d="M155.057,388.893l-31.859-31.86c-6.788-6.788-17.797-6.788-24.586,0s-6.79,17.797,0,24.586l31.86,31.86
			c3.395,3.395,7.844,5.093,12.293,5.093c4.448,0,8.899-1.698,12.293-5.093C161.846,406.691,161.846,395.683,155.057,388.893z"/>
	</g>
</g>
</svg>