<?xml version="1.0" encoding="iso-8859-1"?>
<!-- Uploaded to: SVG Repo, www.svgrepo.com, Generator: SVG Repo Mixer Tools -->
<svg fill="#000000" height="800px" width="800px" version="1.1" id="Layer_1" xmlns="http://www.w3.org/2000/svg" xmlns:xlink="http://www.w3.org/1999/xlink" 
	 viewBox="0 0 511.999 511.999" xml:space="preserve">
<g>
	<g>
		<path d="M495.861,34.852l-4.128-13.76H334.288l-4.128,13.76c-11.239,37.465-15.706,74.824-16.097,109.808H197.938
			c-0.391-34.984-4.858-72.342-16.097-109.808l-4.128-13.76H20.266l-4.128,13.76c-26.155,87.185-15.698,173.831-2.321,231.166
			c14.429,61.839,34.86,103.081,35.724,104.806l5.337,10.673h88.223l5.337-10.673c0.739-1.476,15.81-31.918,29.186-79.428h59.069
			v38.373L110.084,490.906h49.108l77.5-98.635v98.635h38.615v-98.635l77.499,98.635h49.108L275.305,329.769v-38.373h59.069
			c13.376,47.51,28.448,77.952,29.186,79.428l5.337,10.673h88.223l5.337-10.673c0.864-1.725,21.295-42.968,35.724-104.806
			C511.559,208.683,522.016,122.038,495.861,34.852z M146.791,256.23c-9.26,40.04-21.423,71.207-28.06,86.653h-39.48
			c-10.216-23.823-33.538-85.098-39.356-159.608H158.06C155.959,210.626,151.583,235.505,146.791,256.23z M38.594,144.66
			c0.331-27.536,3.459-56.203,10.73-84.953h99.326c7.299,28.924,10.345,57.684,10.68,84.953H38.594z M236.693,252.781h-49.624
			c4.254-20.51,7.907-44.022,9.709-69.507h39.915V252.781z M275.306,252.781v-69.507h39.915c1.801,25.484,5.455,48.997,9.709,69.507
			H275.306z M460.812,256.23c-9.26,40.04-21.422,71.207-28.06,86.653h-39.48c-10.216-23.823-33.538-85.098-39.356-159.608h118.165
			C469.98,210.626,465.605,235.505,460.812,256.23z M352.615,144.66c0.331-27.535,3.459-56.203,10.73-84.953h99.326
			c7.299,28.924,10.345,57.684,10.68,84.953H352.615z"/>
	</g>
</g>
</svg>