<svg xmlns="http://www.w3.org/2000/svg" xmlns:xlink="http://www.w3.org/1999/xlink" xmlns:serif="http://www.serif.com/" viewBox="0 0 32 40" version="1.1" xml:space="preserve" style="" x="0px" y="0px"  height="800px" width="500px" fill-rule="evenodd" clip-rule="evenodd" stroke-linejoin="round" stroke-miterlimit="2"><path d="M4,29.999L4,31C4,31.552 4.448,32 5,32L9,32C9.552,32 10,31.552 10,31L10,30L22.2,30L22.2,31C22.2,31.552 22.648,32 23.2,32L27.2,32C27.752,32 28.2,31.552 28.2,31L28.2,29.986C29.77,29.837 31,28.514 31,26.905C31,26.905 31,3.095 31,3.095C31,1.387 29.613,0 27.905,0L4.095,0C2.387,0 1,1.387 1,3.095L1,26.905C1,28.582 2.336,29.948 4,29.999ZM4.095,28L27.905,28C28.509,28 29,27.509 29,26.905L29,3.095C29,2.491 28.509,2 27.905,2L4.095,2C3.491,2 3,2.491 3,3.095L3,26.905C3,27.509 3.491,28 4.095,28ZM16,2.8C9.267,2.8 3.8,8.267 3.8,15C3.8,21.733 9.267,27.2 16,27.2C22.733,27.2 28.2,21.733 28.2,15C28.2,8.267 22.733,2.8 16,2.8ZM5,25C5.552,25 6,25.448 6,26C6,26.552 5.552,27 5,27C4.448,27 4,26.552 4,26C4,25.448 4.448,25 5,25ZM27,25C27.552,25 28,25.448 28,26C28,26.552 27.552,27 27,27C26.448,27 26,26.552 26,26C26,25.448 26.448,25 27,25ZM16,4.8C21.63,4.8 26.2,9.37 26.2,15C26.2,20.63 21.63,25.2 16,25.2C10.37,25.2 5.8,20.63 5.8,15C5.8,9.37 10.37,4.8 16,4.8ZM16,9.333C12.872,9.333 10.333,11.872 10.333,15C10.333,18.128 12.872,20.667 16,20.667C19.128,20.667 21.667,18.128 21.667,15C21.667,11.872 19.128,9.333 16,9.333ZM16,11.333C18.024,11.333 19.667,12.976 19.667,15C19.667,17.024 18.024,18.667 16,18.667C13.976,18.667 12.333,17.024 12.333,15C12.333,12.976 13.976,11.333 16,11.333ZM27,3C27.552,3 28,3.448 28,4C28,4.552 27.552,5 27,5C26.448,5 26,4.552 26,4C26,3.448 26.448,3 27,3ZM5,3C5.552,3 6,3.448 6,4C6,4.552 5.552,5 5,5C4.448,5 4,4.552 4,4C4,3.448 4.448,3 5,3Z"/></svg>