<?xml version="1.0" encoding="iso-8859-1"?>
<!-- Uploaded to: SVG Repo, www.svgrepo.com, Generator: SVG Repo Mixer Tools -->
<svg height="800px" width="800px" version="1.1" id="Layer_1" xmlns="http://www.w3.org/2000/svg" xmlns:xlink="http://www.w3.org/1999/xlink" 
	 viewBox="0 0 511.985 511.985" xml:space="preserve">
<g>
	<path style="fill:#E2A437;" d="M21.194,298.643c-5.891,0-10.672-4.75-10.672-10.656V85.313c0-5.891,4.781-10.656,10.672-10.656
		s10.664,4.766,10.664,10.656v202.675C31.858,293.893,27.085,298.643,21.194,298.643z"/>
	<path style="fill:#E2A437;" d="M74.669,266.652H63.998c-5.891,0-10.664-4.766-10.664-10.672c0-5.891,4.773-10.656,10.664-10.656
		h10.671c5.891,0,10.664,4.766,10.664,10.656C85.333,261.887,80.56,266.652,74.669,266.652z"/>
	<path style="fill:#E2A437;" d="M74.669,287.987H63.998c-5.891,0-10.664-4.781-10.664-10.655c0-5.898,4.773-10.68,10.664-10.68
		h10.671c5.891,0,10.664,4.781,10.664,10.68C85.333,283.206,80.56,287.987,74.669,287.987z"/>
	<path style="fill:#E2A437;" d="M74.669,309.331H63.998c-5.891,0-10.664-4.78-10.664-10.687c0-5.875,4.773-10.656,10.664-10.656
		h10.671c5.891,0,10.664,4.781,10.664,10.656C85.333,304.551,80.56,309.331,74.669,309.331z"/>
</g>
<g>
	<path style="fill:#F6BB42;" d="M106.341,362.641c-1.062,0-10.727-0.312-20.609-5.374c-14.016-7.188-21.734-20.469-21.734-37.375
		V178.577c0-5.891,4.781-10.672,10.671-10.672c5.891,0,10.664,4.781,10.664,10.672v141.316c0,8.781,3.062,14.562,9.632,18.125
		c5.656,3.062,11.766,3.312,11.82,3.312h-0.078L106.341,362.641z"/>
	<path style="fill:#F6BB42;" d="M159.863,437.328c-5.891,0-10.672-4.781-10.672-10.656V149.328c0-5.906,4.781-10.672,10.672-10.672
		s10.664,4.766,10.664,10.672v277.345C170.526,432.547,165.753,437.328,159.863,437.328z"/>
</g>
<g>
	<path style="fill:#FFCE54;" d="M291.836,255.981H106.528c-5.891,0-10.672-4.766-10.672-10.656s4.781-10.672,10.672-10.672h185.308
		c5.891,0,10.672,4.781,10.672,10.672S297.726,255.981,291.836,255.981z"/>
	<path style="fill:#FFCE54;" d="M298.117,298.643H106.528c-5.891,0-10.672-4.75-10.672-10.656c0-5.875,4.781-10.655,10.672-10.655
		h191.589c5.891,0,10.672,4.78,10.672,10.655C308.789,293.893,304.008,298.643,298.117,298.643z"/>
	<path style="fill:#FFCE54;" d="M288.008,341.424H107.575c-5.891,0-10.664-4.781-10.664-10.656c0-5.906,4.773-10.688,10.664-10.688
		h180.433c5.891,0,10.656,4.781,10.656,10.688C298.664,336.642,293.898,341.424,288.008,341.424z"/>
</g>
<g>
	<path style="fill:#F6BB42;" d="M159.863,437.328c-39.89,0-77.396-15.531-105.599-43.75
		c-28.203-28.187-43.742-65.686-43.742-105.591c0-39.882,15.539-77.396,43.741-105.599c28.203-28.203,65.709-43.733,105.599-43.733
		s77.389,15.53,105.592,43.733c28.209,28.202,43.74,65.717,43.74,105.599c0,39.905-15.531,77.404-43.74,105.591
		C237.251,421.797,199.752,437.328,159.863,437.328z M159.863,159.983c-70.584,0-128.005,57.421-128.005,128.005
		c0,70.593,57.42,127.997,128.005,127.997c70.576,0,127.989-57.404,127.989-127.997
		C287.851,217.404,230.439,159.983,159.863,159.983z"/>
	<path style="fill:#F6BB42;" d="M31.998,95.985H10.671C4.781,95.985,0,91.204,0,85.313s4.781-10.656,10.671-10.656h21.328
		c5.891,0,10.672,4.766,10.672,10.656S37.889,95.985,31.998,95.985z"/>
</g>
<path style="fill:#FFCE54;" d="M159.863,159.655c-35.296,0-64.006,28.703-64.006,63.999v128.333
	c0,35.279,28.71,63.998,64.006,63.998c35.288,0,63.999-28.719,63.999-63.998V223.654
	C223.861,188.358,195.151,159.655,159.863,159.655z M202.526,351.986c0,23.53-19.14,42.686-42.663,42.686
	c-23.531,0-42.671-19.155-42.671-42.686V223.654c0-23.531,19.14-42.671,42.671-42.671c23.523,0,42.663,19.14,42.663,42.671V351.986z
	"/>
<path style="opacity:0.1;enable-background:new    ;" d="M308.945,296.581c-9.234,13.687-19.547,27.187-30.874,40.468
	c-8.68,20.844-22.727,38.937-40.414,52.498c0.32,0.688,0.711,1.344,1.18,1.938c2.086,2.719,5.242,4.156,8.445,4.156
	c1.93,0,3.867-0.531,5.609-1.594c7.915-4.906,16.422-9.969,25.352-14.999C296.586,355.299,307.242,326.799,308.945,296.581z"/>
<path style="fill:#F6BB42;" d="M477.207,338.049l-92.779-196.472c-2.219-4.688-7.484-7.125-12.484-5.734
	c-5.016,1.375-8.296,6.141-7.78,11.297c0.89,9.733-0.391,37.358-11.594,72.217c-8.233,25.624-20.452,51.421-36.312,76.662
	c-19.875,31.687-45.554,62.593-76.334,91.872c-3.961,3.781-4.43,9.938-1.086,14.25c2.086,2.719,5.242,4.156,8.445,4.156
	c1.93,0,3.867-0.531,5.609-1.594c46.601-28.874,113.63-63.279,168.349-63.279c22.014,0,35.232,5.969,39.279,9.219
	c3.703,3.531,9.234,3.781,13.406,0.781C478.113,348.424,479.394,342.736,477.207,338.049z"/>
<path style="fill:#E2A437;" d="M475.863,219.451c28.999,56.226,33.968,111.349,11.078,123.161
	c-22.891,11.812-64.951-24.188-93.967-80.396c-29.015-56.218-33.968-111.357-11.078-123.169
	C404.771,127.234,446.847,163.233,475.863,219.451z"/>
<path style="fill:#FFCE54;" d="M477.254,355.517c-14.609,0-31.547-8.969-49.015-25.969c-16.452-16-31.921-37.593-44.749-62.443
	c-14.641-28.391-23.921-57.562-26.14-82.17c-2.516-27.875,4.469-47.546,19.64-55.374c4.422-2.281,9.328-3.438,14.578-3.438
	c14.609,0,31.562,8.984,49.015,25.968c16.452,16.016,31.937,37.608,44.749,62.468c14.656,28.374,23.937,57.554,26.155,82.178
	c2.5,27.874-4.469,47.53-19.655,55.374C487.426,354.361,482.519,355.517,477.254,355.517z M391.568,147.469
	c-1.844,0-3.406,0.344-4.781,1.047c-6.656,3.437-9.797,16.655-8.188,34.499c1.969,21.937,10.438,48.311,23.859,74.311
	c11.609,22.507,26.046,42.726,40.654,56.943c18.484,18,30.031,19.938,34.141,19.938c1.859,0,3.422-0.344,4.797-1.062
	c6.656-3.438,9.797-16.656,8.188-34.499c-1.969-21.937-10.453-48.319-23.859-74.303c-11.609-22.516-26.062-42.733-40.671-56.952
	C407.224,149.406,395.678,147.469,391.568,147.469z"/>
</svg>