<?xml version="1.0" encoding="utf-8"?>

<!-- Uploaded to: SVG Repo, www.svgrepo.com, Generator: SVG Repo Mixer Tools -->
<svg fill="#000000" height="800px" width="800px" version="1.1" id="Icons" xmlns="http://www.w3.org/2000/svg" xmlns:xlink="http://www.w3.org/1999/xlink" 
	 viewBox="0 0 32 32" xml:space="preserve">
<path d="M21.2,2c-3.6,0-6.8,2.1-8.1,5.4l-1.8,4.2c-0.6,1.4-2,2.3-3.5,2.3C4.6,14,2,16.6,2,19.8V29c0,0.6,0.4,1,1,1h26
	c0.6,0,1-0.4,1-1V10.8C30,5.9,26.1,2,21.2,2z M28,28H4v-4h1v2c0,0.6,0.4,1,1,1s1-0.4,1-1v-2h1v2c0,0.6,0.4,1,1,1s1-0.4,1-1v-2h2v2
	c0,0.6,0.4,1,1,1s1-0.4,1-1v-2h1v2c0,0.6,0.4,1,1,1s1-0.4,1-1v-2h1v2c0,0.6,0.4,1,1,1s1-0.4,1-1v-2h2v2c0,0.6,0.4,1,1,1s1-0.4,1-1
	v-2h1v2c0,0.6,0.4,1,1,1s1-0.4,1-1v-2h1V28z"/>
</svg>