<svg xmlns="http://www.w3.org/2000/svg" xmlns:xlink="http://www.w3.org/1999/xlink" version="1.1" x="0px" y="0px" viewBox="0 0 32 40" enable-background="new 0 0 32 32" xml:space="preserve"><g><path d="M27,26v-2c0-0.553-0.447-1-1-1s-1,0.447-1,1v1h-2.128l-4.063-5.588c-0.016-0.021-0.038-0.031-0.055-0.051   c-0.046-0.054-0.097-0.097-0.152-0.14c-0.05-0.039-0.098-0.075-0.152-0.104c-0.056-0.027-0.113-0.045-0.173-0.062   c-0.067-0.02-0.132-0.035-0.202-0.041C18.049,19.013,18.026,19,18,19h-4c-0.027,0-0.049,0.014-0.076,0.016   c-0.068,0.005-0.131,0.021-0.197,0.039c-0.062,0.019-0.12,0.035-0.176,0.064c-0.055,0.027-0.103,0.063-0.152,0.103   c-0.056,0.043-0.107,0.086-0.152,0.14c-0.017,0.02-0.04,0.029-0.055,0.051L9.127,25H7v-1c0-0.553-0.448-1-1-1s-1,0.447-1,1v2   c0,0.553,0.448,1,1,1h1.673l-2.481,3.412c-0.022,0.03-0.026,0.065-0.045,0.098c-0.034,0.06-0.063,0.119-0.085,0.186   c-0.021,0.065-0.033,0.13-0.04,0.197C5.018,30.93,5,30.962,5,31c0,0.026,0.013,0.049,0.015,0.075   c0.005,0.069,0.021,0.134,0.041,0.2c0.018,0.061,0.035,0.118,0.063,0.174c0.028,0.055,0.065,0.104,0.104,0.153   c0.042,0.055,0.085,0.105,0.138,0.15c0.02,0.017,0.03,0.04,0.051,0.056c0.04,0.029,0.085,0.043,0.128,0.064   c0.037,0.02,0.071,0.041,0.11,0.057C5.764,31.973,5.881,32,5.999,32c0,0,0,0,0,0h0h3c0.552,0,1-0.447,1-1s-0.448-1-1-1H7.963   l2.182-3H13c0.552,0,1-0.447,1-1s-0.448-1-1-1h-1.4l2.909-4h2.982l2.909,4H19c-0.553,0-1,0.447-1,1s0.447,1,1,1h2.854l2.182,3H23   c-0.553,0-1,0.447-1,1s0.447,1,1,1h3c0,0,0,0,0.001,0l0,0c0.118,0,0.235-0.027,0.349-0.07c0.041-0.016,0.075-0.037,0.112-0.058   c0.042-0.021,0.087-0.035,0.126-0.063c0.021-0.016,0.031-0.038,0.051-0.055c0.054-0.046,0.097-0.097,0.141-0.152   c0.038-0.05,0.074-0.098,0.102-0.152c0.028-0.056,0.046-0.113,0.063-0.174c0.02-0.066,0.035-0.132,0.041-0.201   C26.987,31.049,27,31.026,27,31c0-0.038-0.018-0.07-0.021-0.106c-0.007-0.068-0.019-0.132-0.04-0.198s-0.051-0.127-0.085-0.187   c-0.019-0.031-0.023-0.066-0.045-0.097L24.327,27H26C26.553,27,27,26.553,27,26z"/><path d="M13,3h2v13c-0.552,0-1,0.448-1,1c0,0.553,0.448,1,1,1h2c0.553,0,1-0.447,1-1c0-0.552-0.447-1-1-1V3h2c0.553,0,1-0.448,1-1   s-0.447-1-1-1h-2c0-0.26-0.11-0.52-0.29-0.71c-0.38-0.37-1.04-0.37-1.42,0C15.11,0.48,15,0.74,15,1h-2c-0.552,0-1,0.448-1,1   S12.448,3,13,3z"/></g><text x="0" y="47" fill="#000000" font-size="5px" font-weight="bold" font-family="'Helvetica Neue', Helvetica, Arial-Unicode, Arial, Sans-serif">Created by Janika Mandel ( Leisalu )</text><text x="0" y="52" fill="#000000" font-size="5px" font-weight="bold" font-family="'Helvetica Neue', Helvetica, Arial-Unicode, Arial, Sans-serif">from the Noun Project</text></svg>