<?xml version="1.0" encoding="utf-8"?>

<!-- Uploaded to: SVG Repo, www.svgrepo.com, Generator: SVG Repo Mixer Tools -->
<svg fill="#000000" height="800px" width="800px" version="1.1" id="Icons" xmlns="http://www.w3.org/2000/svg" xmlns:xlink="http://www.w3.org/1999/xlink" 
	 viewBox="0 0 32 32" xml:space="preserve">
<g>
	<path d="M28,3c-2.4,0-4.3,1.9-4.3,4.4c0,0.8,0.2,1.6,0.6,2.3c0.5,0.8,0.9,1.6,1.1,2.5c-0.2-0.1-0.3-0.2-0.5-0.2c0,0,0,0,0,0
		c-0.5,0-1,0.4-1,1c0,2.4-1.2,4.5-2.9,5.9V8h1c0.6,0,1-0.4,1-1s-0.4-1-1-1H10C9.4,6,9,6.4,9,7s0.4,1,1,1h1v10.9
		c-0.2-0.2-0.4-0.3-0.6-0.5c-1.5-1.5-2.4-3.4-2.4-5.5c0-0.6-0.4-1-1-1c-0.2,0-0.3,0.1-0.5,0.1c0.3-0.8,0.6-1.6,1.1-2.3
		C8.1,9,8.3,8.2,8.3,7.3C8.3,4.9,6.4,3,4,3C3.4,3,3,3.4,3,4s0.4,1,1,1c1.3,0,2.3,1,2.3,2.4c0,0.4-0.1,0.9-0.3,1.2
		c-1.2,1.9-1.9,4.2-1.9,6.4c0,3.3,1.3,6.4,3.6,8.6C10,25.8,12.9,27,16,27c0.1,0,0.2,0,0.3,0c6.3-0.2,11.5-5.5,11.6-11.8
		c0-2.3-0.6-4.6-1.9-6.6c-0.2-0.3-0.3-0.7-0.3-1.2C25.7,6,26.7,5,28,5c0.6,0,1-0.4,1-1S28.6,3,28,3z M19,20c-0.6,0.3-1.3,0.4-2,0.5
		V8h2L19,20C19,20,19,20,19,20z M13,20V8h2v12.5C14.3,20.4,13.6,20.3,13,20C13,20,13,20,13,20z"/>
	<path d="M22,28H10c-0.6,0-1,0.4-1,1s0.4,1,1,1h12c0.6,0,1-0.4,1-1S22.6,28,22,28z"/>
</g>
</svg>