
<svg xmlns:dc="http://purl.org/dc/elements/1.1/" xmlns:cc="http://creativecommons.org/ns#" xmlns:rdf="http://www.w3.org/1999/02/22-rdf-syntax-ns#" xmlns:svg="http://www.w3.org/2000/svg" 
  preserveAspectRatio="xMidYMid meet" xmlns="http://www.w3.org/2000/svg"   viewBox="0 0 12.7 14.875"  x="0px" y="0px" height="400px" width="400px"><g transform="translate(0,-284.29999)"><path style="" d="m 0.52891108,288.33566 v 4.62865 H 12.17108 v -4.62865 z m 2.52542142,0.49867 a 0.25007937,0.25007937 0 0 1 0.2485496,0.2589 0.25011065,0.25011065 0 1 1 -0.5002213,0 0.25007937,0.25007937 0 0 1 0.2516717,-0.2589 z m 5.5040476,0 a 0.25007933,0.25007933 0 0 1 0.2480469,0.2589 0.25007933,0.25007933 0 1 1 -0.4997185,0 0.25007933,0.25007933 0 0 1 0.2516716,-0.2589 z m 1.0903744,0 a 0.25007933,0.25007933 0 0 1 0.248576,0.2589 0.25012385,0.25012385 0 1 1 -0.5002477,0 0.25007933,0.25007933 0 0 1 0.2516717,-0.2589 z m -5.5123291,0.008 a 0.25026568,0.25026568 0 0 1 0.256831,0.25063 0.25026568,0.25026568 0 1 1 -0.5002212,0 0.25026568,0.25026568 0 0 1 0.2433902,-0.25063 z m 1.419569,5.3e-4 H 7.143997 a 0.07937504,0.07937504 0 0 1 0.079058,0.0791 v 0.3421 a 0.07937504,0.07937504 0 0 1 -0.079058,0.0791 H 5.5559944 a 0.07937504,0.07937504 0 0 1 -0.079587,-0.0791 v -0.3421 a 0.07937504,0.07937504 0 0 1 0.079587,-0.0791 z m -4.8519027,1.31258 h 0.5885921 v 1.20096 a 0.12493822,0.12493822 0 0 0 0.1250421,0.12454 h 0.1152525 v 1.30845 H 0.7040917 Z m 1.1787187,0 h 0.3824023 v 1.20096 a 0.12493822,0.12493822 0 0 0 0.1245659,0.12454 h 0.1157552 v 1.30845 H 1.643045 v -1.30845 h 0.1152261 a 0.12493822,0.12493822 0 0 0 0.1245393,-0.12454 z m 0.9725554,0 h 0.5885921 v 2.63395 H 2.6150713 v -1.30845 h 0.1157552 a 0.12493822,0.12493822 0 0 0 0.1245393,-0.12454 z m 0.699188,0 H 4.143675 v 1.20096 a 0.12493822,0.12493822 0 0 0 0.1245394,0.12454 h 0.1147233 v 1.30845 H 3.5545538 Z m 1.1792479,0 h 0.3818995 v 1.20096 a 0.12493822,0.12493822 0 0 0 0.1245394,0.12454 h 0.1157552 v 1.30845 H 4.4935071 v -1.30845 h 0.1152525 a 0.12493822,0.12493822 0 0 0 0.1250421,-0.12454 z m 0.9720526,0 h 0.5890948 v 2.63395 H 5.4660625 V 291.4812 H 5.581315 a 0.12493822,0.12493822 0 0 0 0.1245393,-0.12454 z m 0.6996907,0 h 0.588592 v 1.20096 a 0.12493822,0.12493822 0 0 0 0.1245394,0.12454 h 0.1147233 v 1.30845 H 6.405545 Z m 1.1787452,0 h 0.3818731 v 1.20096 a 0.12493822,0.12493822 0 0 0 0.1250685,0.12454 h 0.1147234 v 1.30845 H 7.3439956 v -1.30845 h 0.1147233 a 0.12493822,0.12493822 0 0 0 0.1255713,-0.12454 z m 0.9720262,0 h 0.5891212 v 2.63395 H 8.3165245 V 291.4812 H 8.431777 a 0.12493822,0.12493822 0 0 0 0.1245394,-0.12454 z m 0.6996906,0 h 0.5880894 v 1.20096 a 0.12493822,0.12493822 0 0 0 0.1250421,0.12454 h 0.1147235 v 1.30845 H 9.256007 Z m 1.178745,0 h 0.382402 v 1.20096 a 0.12493822,0.12493822 0 0 0 0.12454,0.12454 h 0.114723 v 1.30845 h -0.861959 v -1.30845 h 0.115226 a 0.12493822,0.12493822 0 0 0 0.125068,-0.12454 z m 0.972556,0 H 11.9959 v 2.63395 h -0.828887 v -1.30845 h 0.114723 a 0.12493822,0.12493822 0 0 0 0.125572,-0.12454 z" fill="#000000" stroke="none"/></g></svg>