<?xml version="1.0" encoding="iso-8859-1"?>
<!-- Uploaded to: SVG Repo, www.svgrepo.com, Generator: SVG Repo Mixer Tools -->
<svg height="800px" width="800px" version="1.1" id="Layer_1" xmlns="http://www.w3.org/2000/svg" xmlns:xlink="http://www.w3.org/1999/xlink" 
	 viewBox="0 0 512.001 512.001" xml:space="preserve">
<g>
	<path style="fill:#A67C52;" d="M255.901,76.552c53.487,0,96.848,59.74,96.848,133.433v2.458H353l36.336,43.368v-45.826
		C389.336,136.291,329.595,76.552,255.901,76.552z"/>
	<path style="fill:#A67C52;" d="M255.901,76.552L255.901,76.552c-73.693,0-133.433,59.74-133.433,133.433v45.826l36.336-43.368
		h0.251v-2.458C159.055,136.291,202.415,76.552,255.901,76.552z"/>
</g>
<path style="fill:#754C24;" d="M255.901,76.552L255.901,76.552c-53.488,0-96.848,59.74-96.848,133.433v2.458h26.372h140.95h26.372
	v-2.458C352.749,136.291,309.389,76.552,255.901,76.552z"/>
<path style="fill:#A67C52;" d="M276.749,372.897c-13.434-9.347-28.224-9.347-41.659,0c-14.266,9.926-34.472,17.575-54.974,17.575
	c-22.538,0-42.92-7.279-57.605-19.019c1.777,72.145,60.818,130.386,133.392,130.386l0,0c72.574,0,131.613-58.241,133.392-130.386
	c-14.685,11.74-35.068,19.019-57.606,19.019C311.185,390.472,291.015,382.823,276.749,372.897z"/>
<g>
	<path style="fill:#FFA858;" d="M122.511,371.453c14.685,11.74,35.068,19.019,57.605,19.019c20.502,0,40.709-7.649,54.974-17.575
		c13.434-9.347,28.224-9.347,41.659,0c14.266,9.926,34.436,17.575,54.938,17.575c22.538,0,42.92-7.279,57.606-19.019l0.043-115.404
		L353,212.681H158.804l-36.336,43.368L122.511,371.453z"/>
	<path style="fill:#FFA858;" d="M239.143,347.379v12.945c0,9.255,7.503,16.758,16.758,16.758l0,0
		c9.255,0,16.758-7.503,16.758-16.758v-12.945"/>
</g>
<path style="fill:#754C24;" d="M206.483,10.161v16.972c0,27.293,22.125,49.419,49.419,49.419l0,0
	c27.293,0,49.419-22.125,49.419-49.419V10.161H206.483z"/>
<g>
	<path style="fill:#FFA858;" d="M122.307,326.075h-5.392c-14.418,0-26.106-11.688-26.106-26.106v-12.394
		c0-17.681,13.818-32.013,31.498-32.013V326.075z"/>
	<path style="fill:#FFA858;" d="M389.533,326.075h5.554c14.418,0,26.106-11.688,26.106-26.106v-12.394
		c0-17.681-13.98-32.013-31.66-32.013V326.075z"/>
</g>
<path style="fill:#FFFFFF;" d="M205.965,415.572c6.984,20.604,26.484,35.431,49.447,35.431s42.463-14.829,49.447-35.431H205.965z"/>
<g>
	<path style="fill:#00537B;" d="M399.496,246.62v-36.635c0-65.557-44.16-120.994-104.295-138.127
		c12.42-10.927,20.28-26.921,20.28-44.724V10.161C315.481,4.55,310.932,0,305.32,0h-98.837c-5.612,0-10.161,4.55-10.161,10.161
		v16.972c0,17.804,7.86,33.797,20.281,44.724c-60.135,17.133-104.295,72.571-104.295,138.127v36.653
		c-18.156,4.547-31.66,21.172-31.66,40.937v12.394c0,18.446,13.846,33.708,31.689,35.967l0.013,35.521
		c0,0.05,0.007,0.099,0.007,0.149c0,0.033-0.005,0.064-0.005,0.098c0.927,37.611,16.266,72.859,43.192,99.254
		c27.001,26.468,62.642,41.044,100.357,41.044s73.356-14.577,100.357-41.043c26.926-26.394,42.265-61.643,43.192-99.255
		c0.001-0.033-0.005-0.064-0.005-0.098c0.001-0.05,0.007-0.099,0.007-0.149l0.013-35.496c17.939-2.17,31.887-17.478,31.887-35.992
		v-12.394C431.353,267.783,417.76,251.141,399.496,246.62z M272.659,337.218c-5.612,0-10.161,4.55-10.161,10.161v12.944
		c0,3.638-2.96,6.597-6.597,6.597c-3.639,0-6.597-2.96-6.597-6.597v-12.944c0-5.611-4.549-10.161-10.161-10.161
		s-10.161,4.55-10.161,10.161v12.944c0,1.435,0.116,2.842,0.332,4.216c-0.009,0.006-0.019,0.011-0.028,0.018
		c-14.178,9.865-32.56,15.755-49.172,15.755c-17.738,0-34.385-4.945-47.446-13.98l-0.039-106.59l30.915-36.899h184.713
		l30.916,36.899l-0.04,106.59c-13.062,9.035-29.709,13.98-47.446,13.98c-16.588,0-34.956-5.89-49.135-15.755
		c-0.02-0.014-0.041-0.024-0.061-0.038c0.215-1.368,0.329-2.769,0.329-4.196v-12.944
		C282.82,341.767,278.271,337.218,272.659,337.218z M255.901,86.712c45.978,0,83.712,51.173,86.519,115.57H169.382
		C172.19,137.886,209.923,86.712,255.901,86.712z M379.175,209.985v17.878l-16.278-19.429c-0.259-33.143-8.81-64.558-24.308-89.798
		C363.501,141.206,379.175,173.8,379.175,209.985z M216.644,20.321h78.516v6.812c0,21.647-17.612,39.258-39.258,39.258
		c-21.647,0-39.258-17.611-39.258-39.258L216.644,20.321L216.644,20.321z M132.629,209.985c0-36.185,15.674-68.778,40.586-91.349
		c-15.498,25.24-24.048,56.654-24.307,89.797l-16.278,19.429V209.985z M112.146,315.185c-6.47-2.031-11.177-8.085-11.177-15.217
		v-12.394c0-8.463,4.47-15.659,11.177-19.301V315.185z M255.901,491.679c-59.631,0-110.342-43.699-121.147-100.81
		c13.653,6.37,29.195,9.763,45.362,9.763c20.509,0,42.204-6.815,59.746-18.707c4.483,3.337,10.035,5.315,16.04,5.315
		c6.013,0,11.571-1.982,16.057-5.327c17.544,11.9,39.234,18.719,59.729,18.719c16.168,0,31.709-3.395,45.362-9.763
		C366.244,447.981,315.533,491.679,255.901,491.679z M411.032,299.97c0,7.191-4.785,13.285-11.338,15.266v-47.004
		c6.801,3.629,11.338,10.849,11.338,19.343V299.97z"/>
	<path style="fill:#00537B;" d="M211.476,267.615c-5.612,0-10.161,4.55-10.161,10.161v12.82c0,5.611,4.549,10.161,10.161,10.161
		c5.612,0,10.161-4.55,10.161-10.161v-12.82C221.637,272.164,217.088,267.615,211.476,267.615z"/>
	<path style="fill:#00537B;" d="M227.731,237.022l-50.959,12.193c-5.457,1.306-8.824,6.789-7.517,12.247
		c1.116,4.663,5.281,7.798,9.873,7.798c0.782,0,1.578-0.091,2.373-0.28l50.959-12.193c5.457-1.306,8.824-6.789,7.517-12.247
		C238.671,239.084,233.193,235.723,227.731,237.022z"/>
	<path style="fill:#00537B;" d="M300.328,267.615c-5.612,0-10.161,4.55-10.161,10.161v12.82c0,5.611,4.549,10.161,10.161,10.161
		s10.161-4.55,10.161-10.161v-12.82C310.489,272.164,305.94,267.615,300.328,267.615z"/>
	<path style="fill:#00537B;" d="M332.676,269.26c4.593,0,8.758-3.136,9.873-7.798c1.306-5.457-2.06-10.941-7.517-12.247
		l-50.959-12.193c-5.458-1.31-10.94,2.06-12.247,7.517c-1.306,5.457,2.06,10.941,7.517,12.247l50.959,12.193
		C331.098,269.17,331.893,269.26,332.676,269.26z"/>
	<path style="fill:#00537B;" d="M304.859,405.411h-98.893c-3.275,0-6.349,1.579-8.258,4.241c-1.908,2.661-2.416,6.079-1.365,9.181
		c8.583,25.319,32.321,42.33,59.069,42.33s50.486-17.011,59.069-42.33c1.052-3.102,0.544-6.52-1.365-9.181
		C311.208,406.99,308.133,405.411,304.859,405.411z M255.412,440.843c-12.746,0-24.476-5.727-32.303-15.11h64.607
		C279.888,435.116,268.157,440.843,255.412,440.843z"/>
</g>
</svg>