<?xml version="1.0" encoding="iso-8859-1"?>
<!-- Uploaded to: SVG Repo, www.svgrepo.com, Generator: SVG Repo Mixer Tools -->
<svg fill="#000000" height="800px" width="800px" version="1.1" id="Layer_1" xmlns="http://www.w3.org/2000/svg" xmlns:xlink="http://www.w3.org/1999/xlink" 
	 viewBox="0 0 470 470" xml:space="preserve">
<g>
	<g>
		<g>
			<path d="M108.333,70h40.833c4.142,0,7.5-3.357,7.5-7.5s-3.358-7.5-7.5-7.5h-40.833c-4.142,0-7.5,3.357-7.5,7.5
				S104.191,70,108.333,70z"/>
			<path d="M391.667,70H432.5c4.142,0,7.5-3.357,7.5-7.5s-3.358-7.5-7.5-7.5h-40.833c-4.142,0-7.5,3.357-7.5,7.5
				S387.524,70,391.667,70z"/>
			<path d="M179.167,55c-4.142,0-7.5,3.357-7.5,7.5s3.358,7.5,7.5,7.5H220c4.142,0,7.5-3.357,7.5-7.5S224.142,55,220,55H179.167z"/>
			<path d="M37.5,70h40.833c4.142,0,7.5-3.357,7.5-7.5s-3.358-7.5-7.5-7.5H37.5c-4.142,0-7.5,3.357-7.5,7.5S33.358,70,37.5,70z"/>
			<path d="M313.333,62.5c0,4.143,3.358,7.5,7.5,7.5h40.833c4.142,0,7.5-3.357,7.5-7.5s-3.358-7.5-7.5-7.5h-40.833
				C316.691,55,313.333,58.357,313.333,62.5z"/>
			<path d="M250,55c-4.142,0-7.5,3.357-7.5,7.5s3.358,7.5,7.5,7.5h40.833c4.142,0,7.5-3.357,7.5-7.5s-3.358-7.5-7.5-7.5H250z"/>
			<path d="M462.5,75c-4.142,0-7.5,3.357-7.5,7.5V85H15v-2.5c0-4.143-3.358-7.5-7.5-7.5S0,78.357,0,82.5v370
				c0,4.143,3.358,7.5,7.5,7.5s7.5-3.357,7.5-7.5V165h15v137.5c0,4.143,3.358,7.5,7.5,7.5h55c4.142,0,7.5-3.357,7.5-7.5V165h15
				v107.5c0,4.143,3.358,7.5,7.5,7.5c4.142,0,7.5-3.357,7.5-7.5V165h40v160h-40v-22.5c0-4.143-3.358-7.5-7.5-7.5
				c-4.142,0-7.5,3.357-7.5,7.5v30c0,4.143,3.358,7.5,7.5,7.5h55c4.142,0,7.5-3.357,7.5-7.5V165h15v197.5c0,4.143,3.358,7.5,7.5,7.5
				h55c4.142,0,7.5-3.357,7.5-7.5V165h15v227.5c0,4.143,3.358,7.5,7.5,7.5h55c4.142,0,7.5-3.357,7.5-7.5V165h15v257.5
				c0,4.143,3.358,7.5,7.5,7.5h55c4.142,0,7.5-3.357,7.5-7.5V165h15v287.5c0,4.143,3.358,7.5,7.5,7.5c4.142,0,7.5-3.357,7.5-7.5
				v-370C470,78.357,466.642,75,462.5,75z M85,295H45V165h40V295z M255,355h-40V165h40V355z M340,385h-40V165h40V385z M425,415h-40
				V165h40V415z M455,150H15v-50h440V150z"/>
			<path d="M146.667,40c5.538,0,10.372-3.024,12.971-7.5h171.195c4.142,0,7.5-3.357,7.5-7.5s-3.358-7.5-7.5-7.5H159.638
				c-2.599-4.476-7.433-7.5-12.971-7.5c-8.271,0-15,6.729-15,15S138.396,40,146.667,40z"/>
		</g>
	</g>
</g>
</svg>