<?xml version="1.0" encoding="iso-8859-1"?>
<!-- Uploaded to: SVG Repo, www.svgrepo.com, Generator: SVG Repo Mixer Tools -->
<svg fill="#000000" height="800px" width="800px" version="1.1" id="Layer_1" xmlns="http://www.w3.org/2000/svg" xmlns:xlink="http://www.w3.org/1999/xlink" 
	 viewBox="0 0 511.998 511.998" xml:space="preserve">
<g>
	<g>
		<path d="M505.067,51.756L459.286,9.857c-8.241-7.542-20.905-7.449-29.035,0.213L113.366,308.737
			c-0.052,0.049-0.096,0.104-0.147,0.154c-0.104,0.1-0.215,0.185-0.318,0.287C72.096,350.002,45.815,365.984,44.13,364.3
			c-8.331-8.331-21.839-8.331-30.17,0c-18.614,18.614-18.614,48.804,0,67.418l62.059,62.059c18.614,18.614,48.804,18.614,67.418,0
			c7.219-7.219,8.183-18.325,2.891-26.582c1.273-2.308,3.594-5.608,7.04-9.718c5.026-5.996,11.758-13.002,22.405-23.46
			c-1.865,1.832,23.566-22.933,31.305-30.675c0.065-0.065,0.119-0.137,0.183-0.202c0.114-0.117,0.238-0.219,0.35-0.339
			L506.278,82.031C514.355,73.355,513.812,59.759,505.067,51.756z M145.875,403.577c-11.564,11.359-19.066,19.166-25.205,26.49
			c-8.941,10.666-15.11,20.849-17.497,30.524l-54.001-54.001c21.047-3.363,46.445-21.685,78.646-52.332l33.882,33.882
			C153.173,396.481,144.888,404.546,145.875,403.577z M191.45,357.544l-32.829-32.829L445.097,54.709l15.292,13.995L191.45,357.544z
			"/>
	</g>
</g>
</svg>