<?xml version="1.0" encoding="utf-8"?>

<!-- Uploaded to: SVG Repo, www.svgrepo.com, Generator: SVG Repo Mixer Tools -->
<svg fill="#000000" height="800px" width="800px" version="1.1" id="Icons" xmlns="http://www.w3.org/2000/svg" xmlns:xlink="http://www.w3.org/1999/xlink" 
	 viewBox="0 0 32 32" xml:space="preserve">
<path d="M27,6.1V3c0-0.6-0.4-1-1-1h-4h-4h-4h-4H6C5.4,2,5,2.4,5,3v3.1C3.9,6.3,3,7.3,3,8.5s0.9,2.2,2,2.4V29c0,0.6,0.4,1,1,1h4
	c0.6,0,1-0.4,1-1v-2h3c0.6,0,1-0.4,1-1v-2h3c0.6,0,1-0.4,1-1v-2h3c0.6,0,1-0.4,1-1v-2h3c0.6,0,1-0.4,1-1v-6.1c1.1-0.2,2-1.2,2-2.4
	S28.1,6.3,27,6.1z M9,26v2H7V11h2V26z M9,6H7V4h2V6z M13,23v2h-2V11h2V23z M13,6h-2V4h2V6z M17,20v2h-2V11h2V20z M17,6h-2V4h2V6z
	 M21,17v2h-2v-8h2V17z M21,6h-2V4h2V6z M25,16h-2v-5h2V16z M25,6h-2V4h2V6z"/>
</svg>