
<svg xmlns="http://www.w3.org/2000/svg" xmlns:xlink="http://www.w3.org/1999/xlink" viewBox="0 0 417 521.25" version="1.1" xml:space="preserve" height="400px" width="400px" x="0px" y="0px" fill-rule="evenodd"  ><rect x="0" y="0" width="416.667" height="416.667"  fill="none"/><path d="M198.721,114.813c6.378,-11.108 18.357,-18.595 32.071,-18.595l127.984,0c20.396,0 36.954,16.559 36.954,36.955l0,10.675c0,20.395 -16.558,36.954 -36.954,36.954c0,0 -127.984,0 -127.984,0c-13.714,0 -25.693,-7.487 -32.071,-18.595l-21.511,0c-2.301,0 -4.167,-1.865 -4.167,-4.166l0,-5.048l-11.718,1.029l4.166,12.964c0.704,2.191 -0.502,4.538 -2.693,5.242l-1.473,0.474l19.358,19.414l0.744,0c7.416,0 13.437,6.021 13.437,13.437c-0,0 -0,63.933 -0,63.933c-0,6.249 -4.276,11.508 -10.059,13.008l-3.45,34.206c-0.231,2.289 -2.274,3.958 -4.563,3.727l-28.529,-2.877c-2.29,-0.231 -3.959,-2.274 -3.728,-4.564l3.17,-31.431c-4.457,-2.189 -7.527,-6.773 -7.527,-12.069l0,-57.864l-96.183,-8.514c-13.051,-1.156 -23.059,-12.088 -23.059,-25.19c0,-2.357 0,-4.775 0,-7.156c0,-13.454 10.506,-24.454 23.763,-25.243l-0.044,-0.504c-0.157,-1.785 0.845,-3.471 2.488,-4.186l14.467,-6.295c0.412,-0.179 0.851,-0.291 1.298,-0.33l110.135,-9.675l0,-5.55c0,-2.301 1.866,-4.166 4.167,-4.166l21.511,-0Zm-22.335,168.11l-2.904,28.795c0,-0 -20.237,-2.041 -20.237,-2.041l2.698,-26.754l20.443,-0Zm-27.875,-77.37c0,-2.816 2.287,-5.103 5.104,-5.103l27.812,-0c2.816,-0 5.103,2.287 5.103,5.103l0,63.933c0,2.817 -2.287,5.104 -5.103,5.104c-0,-0 -27.812,-0 -27.812,-0c-2.817,-0 -5.104,-2.287 -5.104,-5.104l0,-63.933Zm-103.082,-51.728c-8.995,0.416 -16.159,7.839 -16.159,16.937c-0,-0 -0,7.156 -0,7.156c-0,8.784 6.709,16.114 15.459,16.889l95.642,8.466c0.666,-3.888 3.005,-7.208 6.248,-9.192l-11.707,-11.741c-0.281,-0.282 -0.514,-0.595 -0.698,-0.927l-4.982,1.601c-2.191,0.704 -4.538,-0.501 -5.242,-2.692l-7.194,-22.388l-51.406,4.516c-0.448,0.039 -0.899,0.006 -1.336,-0.099l-15.343,-3.677c-1.743,-0.417 -3.023,-1.902 -3.18,-3.687l-0.102,-1.162Zm97.523,24.781l13.475,13.51l12.488,0l-16.502,-16.551l-9.461,3.041Zm9.86,-23.836l3.47,10.799c0,0 -25.633,8.237 -25.633,8.237l-5.341,-16.62l27.504,-2.416Zm234.585,-21.597l0,10.675c0,15.796 -12.825,28.621 -28.621,28.621l-127.984,-0c-15.796,-0 -28.621,-12.825 -28.621,-28.621l0,-10.675c0,-15.797 12.825,-28.622 28.621,-28.622c0,0 127.984,0 127.984,0c15.796,0 28.621,12.825 28.621,28.622Zm-214.354,-0.279l0,11.733l-107.707,9.462c0,-0 -11.766,-2.82 -11.766,-2.82l-0.351,-3.995l11.094,-4.828l108.73,-9.552Zm8.333,-9.748l0,25.26l0,5.468l13.841,0c-0.898,-3.187 -1.379,-6.551 -1.379,-10.026c-0,-0 -0,-10.675 -0,-10.675c-0,-3.476 0.481,-6.84 1.379,-10.027l-13.841,0Z"/></svg>