<?xml version="1.0" encoding="utf-8"?>

<!-- Uploaded to: SVG Repo, www.svgrepo.com, Generator: SVG Repo Mixer Tools -->
<svg fill="#000000" height="800px" width="800px" version="1.1" id="Icons" xmlns="http://www.w3.org/2000/svg" xmlns:xlink="http://www.w3.org/1999/xlink" 
	 viewBox="0 0 32 32" xml:space="preserve">
<path d="M27.8,19.2c0.1-0.7,0.2-1.5,0.2-2.2c0-0.8-0.1-1.5-0.2-2.2c0.8-0.5,1.4-1.3,1.6-2.2c0.3-1,0.1-2.1-0.4-3s-1.4-1.6-2.4-1.9
	c-0.9-0.3-1.9-0.1-2.8,0.3c-1.1-1-2.4-1.7-3.8-2.2C19.8,3.6,18.1,2,16,2s-3.8,1.6-4,3.7c-1.4,0.5-2.7,1.3-3.8,2.2
	C7.3,7.5,6.4,7.4,5.4,7.6C4.4,7.9,3.5,8.6,3,9.5s-0.7,2-0.4,3c0.2,0.9,0.8,1.7,1.6,2.2C4.1,15.5,4,16.2,4,17c0,0.8,0.1,1.5,0.2,2.2
	c-0.8,0.5-1.4,1.3-1.6,2.2c-0.3,1-0.1,2.1,0.4,3s1.4,1.6,2.4,1.9c0.3,0.1,0.7,0.1,1,0.1c0.6,0,1.2-0.1,1.7-0.4
	C10.3,27.9,13,29,16,29s5.7-1.1,7.8-2.9c0.5,0.3,1.1,0.4,1.7,0.4c0.3,0,0.7,0,1-0.1c1-0.3,1.9-0.9,2.4-1.9s0.7-2,0.4-3
	C29.1,20.5,28.6,19.8,27.8,19.2z M9.7,24.8c0.3-0.4,0.5-0.8,0.6-1.3c0.3-1,0.1-2.1-0.4-3c-0.5-0.9-1.4-1.6-2.4-1.9
	c-0.5-0.1-0.9-0.1-1.4-0.1C6.1,18,6,17.5,6,17c0-0.5,0.1-1,0.1-1.5c0.1,0,0.2,0,0.3,0c0.3,0,0.7,0,1-0.1c1-0.3,1.9-0.9,2.4-1.9
	c0.5-0.9,0.7-2,0.4-3C10.2,10,10,9.6,9.7,9.2c0.8-0.6,1.7-1.2,2.6-1.5C13,9,14.4,10,16,10s3-1,3.6-2.3c1,0.4,1.9,0.9,2.6,1.5
	c-0.3,0.4-0.5,0.8-0.6,1.3c-0.3,1-0.1,2.1,0.4,3c0.5,0.9,1.4,1.6,2.4,1.9c0.3,0.1,0.7,0.1,1,0.1c0.1,0,0.2,0,0.3,0
	c0.1,0.5,0.1,1,0.1,1.5c0,0.5-0.1,1-0.1,1.5c-0.5,0-0.9,0-1.4,0.1c-1,0.3-1.9,0.9-2.4,1.9c-0.5,0.9-0.7,2-0.4,3
	c0.1,0.5,0.3,0.9,0.6,1.3C20.5,26.2,18.4,27,16,27S11.5,26.2,9.7,24.8z"/>
</svg>