<?xml version="1.0" encoding="iso-8859-1"?>
<!-- Uploaded to: SVG Repo, www.svgrepo.com, Generator: SVG Repo Mixer Tools -->
<!DOCTYPE svg PUBLIC "-//W3C//DTD SVG 1.1//EN" "http://www.w3.org/Graphics/SVG/1.1/DTD/svg11.dtd">
<svg fill="#000000" height="800px" width="800px" version="1.1" id="Capa_1" xmlns="http://www.w3.org/2000/svg" xmlns:xlink="http://www.w3.org/1999/xlink" 
	 viewBox="0 0 214.428 214.428" xml:space="preserve">
<path d="M91.502,201.979c-0.512,0-1.024-0.195-1.414-0.586l-10.12-10.119c-0.009-0.009-0.017-0.017-0.025-0.025l-2.555-2.556
	c-0.781-0.781-0.781-2.047,0-2.828c0.78-0.781,2.048-0.781,2.828,0l1.167,1.166l64.958-64.957l-16.619-16.62l-85.134,85.134
	c-9.604,9.605-25.233,9.606-34.838,0l-2.677-2.677c-9.429-9.43-9.429-24.772,0-34.202l43.551-43.551
	c26.664-26.664,27.385-42.528,28.821-74.134c0.292-6.422,0.623-13.7,1.223-21.724c0.059-0.779,0.566-1.453,1.299-1.726
	c0.732-0.272,1.557-0.092,2.11,0.461l58.743,58.742l27.954-27.953c9.402-9.402,24.701-9.402,34.104,0l2.062,2.062
	c4.83,4.83,7.49,11.252,7.49,18.083c0,6.832-2.66,13.254-7.491,18.084L91.671,197.32l1.245,1.245c0.781,0.781,0.781,2.047,0,2.828
	C92.526,201.783,92.013,201.979,91.502,201.979z M84.211,189.86l4.632,4.632L204.109,79.225c4.075-4.075,6.319-9.492,6.319-15.256
	c0-5.763-2.244-11.18-6.319-15.255l-2.061-2.062c-7.842-7.842-20.604-7.843-28.447,0l0,0l-25.048,25.047
	c-0.011,0.012-0.022,0.023-0.034,0.035L38.306,181.947l0,0c-6.141,6.143-16.134,6.143-22.276,0
	c-2.976-2.975-4.614-6.931-4.614-11.138c0-4.208,1.638-8.163,4.614-11.139l42.054-42.054c24.818-24.818,36.94-25.979,66.226-28.784
	l1.608-0.154l14.072-14.073L84.349,18.965c-0.411,6.264-0.673,12.034-0.909,17.239c-1.437,31.608-2.228,49.021-29.989,76.781
	L9.9,156.536c-7.87,7.87-7.87,20.676,0,28.546l2.677,2.677c8.046,8.045,21.136,8.045,29.182,0l91.074-91.074
	c0.012-0.013,0.024-0.025,0.037-0.038l43.816-43.815c6.141-6.143,16.135-6.143,22.275,0c6.142,6.143,6.142,16.136,0,22.276
	L84.211,189.86z M28.993,152.364l-10.135,10.135c-2.22,2.22-3.442,5.171-3.442,8.311c0,3.139,1.222,6.09,3.442,8.31
	c4.582,4.581,12.038,4.581,16.62,0l10.135-10.136L28.993,152.364z M31.821,149.536l16.62,16.619l19.873-19.873l-16.62-16.619
	L31.821,149.536z M54.523,126.834l16.62,16.62l50.33-50.33c-26.712,2.588-37.659,4.419-60.561,27.321L54.523,126.834z
	 M132.549,102.625l16.62,16.619l46.965-46.965c4.581-4.582,4.581-12.037,0-16.62c-4.583-4.583-12.038-4.581-16.619,0l-26.407,26.407
	l4.927,4.927c0.553,0.553,0.733,1.377,0.461,2.109c-0.271,0.733-0.946,1.241-1.726,1.299c-4.416,0.331-8.953,0.836-13.498,1.502
	L132.549,102.625z M150.279,84.895l-2.354,2.354c1.421-0.171,2.836-0.325,4.244-0.463L150.279,84.895z"/>
</svg>