<?xml version="1.0" encoding="UTF-8"?>
<!DOCTYPE svg PUBLIC "-//W3C//DTD SVG 1.1//EN" "http://www.w3.org/Graphics/SVG/1.1/DTD/svg11.dtd">
<svg xmlns="http://www.w3.org/2000/svg" version="1.1" width="500px" height="500px" style="shape-rendering:geometricPrecision; text-rendering:geometricPrecision; image-rendering:optimizeQuality; fill-rule:evenodd; clip-rule:evenodd" xmlns:xlink="http://www.w3.org/1999/xlink">
<g><path style="opacity:0.994" fill="#121212" d="M 273.5,34.5 C 277.481,35.0209 281.481,35.3542 285.5,35.5C 286.71,35.9321 287.71,36.5987 288.5,37.5C 288.973,38.9063 289.973,39.573 291.5,39.5C 294.717,42.0615 296.717,45.3948 297.5,49.5C 297.608,54.8699 297.275,60.2032 296.5,65.5C 295.599,66.2905 294.932,67.2905 294.5,68.5C 293.878,70.4557 292.545,71.789 290.5,72.5C 287.456,70.0907 285.122,67.0907 283.5,63.5C 283.715,61.8212 283.048,60.8212 281.5,60.5C 278.589,56.3513 275.923,52.018 273.5,47.5C 273.573,45.9731 272.906,44.9731 271.5,44.5C 269.49,42.1337 267.823,39.467 266.5,36.5C 266.709,35.914 267.043,35.414 267.5,35C 269.473,34.5045 271.473,34.3379 273.5,34.5 Z"/></g>
<g><path style="opacity:0.271" fill="#6f6f6f" d="M 273.5,34.5 C 277.554,33.5044 281.554,33.8377 285.5,35.5C 281.481,35.3542 277.481,35.0209 273.5,34.5 Z"/></g>
<g><path style="opacity:0.024" fill="#a9a9a9" d="M 288.5,37.5 C 290.027,37.427 291.027,38.0937 291.5,39.5C 289.973,39.573 288.973,38.9063 288.5,37.5 Z"/></g>
<g><path style="opacity:0.49" fill="#787777" d="M 263.5,40.5 C 262.5,40.5 261.5,40.5 260.5,40.5C 261.74,38.0155 262.74,38.0155 263.5,40.5 Z"/></g>
<g><path style="opacity:0.989" fill="#080808" d="M 260.5,40.5 C 261.5,40.5 262.5,40.5 263.5,40.5C 264.974,41.4363 265.974,42.7697 266.5,44.5C 266.427,46.0269 267.094,47.0269 268.5,47.5C 270.555,49.8956 272.221,52.5623 273.5,55.5C 273.427,57.0269 274.094,58.0269 275.5,58.5C 278.533,62.5861 281.2,66.9195 283.5,71.5C 283.427,73.0269 284.094,74.0269 285.5,74.5C 286.757,75.6226 286.424,76.2893 284.5,76.5C 282.302,76.8751 280.302,77.5418 278.5,78.5C 274.833,78.5 271.167,78.5 267.5,78.5C 265.973,78.427 264.973,79.0937 264.5,80.5C 263.395,81.6005 262.062,82.2671 260.5,82.5C 259.833,137.666 259.5,192.999 259.5,248.5C 259.5,304.171 260.167,359.504 261.5,414.5C 283.131,418.511 304.464,423.345 325.5,429C 330.833,434.333 330.833,439.667 325.5,445C 321.017,446.651 316.684,446.484 312.5,444.5C 309.781,443.087 306.781,442.42 303.5,442.5C 300.012,442.46 296.679,441.793 293.5,440.5C 289.69,437.839 285.356,436.839 280.5,437.5C 278.883,436.962 277.216,436.629 275.5,436.5C 274.122,435.766 272.622,435.099 271,434.5C 270.415,435.998 270.915,436.998 272.5,437.5C 273.737,438.965 274.737,440.632 275.5,442.5C 275.845,445.198 277.178,447.198 279.5,448.5C 282.568,451.622 284.902,455.289 286.5,459.5C 286.427,461.027 287.094,462.027 288.5,462.5C 288.427,464.027 289.094,465.027 290.5,465.5C 290.427,467.027 291.094,468.027 292.5,468.5C 296.554,479.63 292.554,484.464 280.5,483C 275.889,477.561 271.889,471.727 268.5,465.5C 268.646,462.446 267.313,460.446 264.5,459.5C 263.263,458.035 262.263,456.368 261.5,454.5C 261.573,452.973 260.906,451.973 259.5,451.5C 257.265,448.709 255.265,445.709 253.5,442.5C 253.715,440.821 253.048,439.821 251.5,439.5C 250.149,436.803 248.315,434.469 246,432.5C 222.5,440.445 198.834,447.778 175,454.5C 166.758,453.148 164.091,448.481 167,440.5C 172.846,436.381 179.346,433.714 186.5,432.5C 188.898,432.741 190.898,432.074 192.5,430.5C 194.898,430.741 196.898,430.074 198.5,428.5C 199.167,428.5 199.833,428.5 200.5,428.5C 202.153,428.34 203.486,427.674 204.5,426.5C 205.167,426.5 205.833,426.5 206.5,426.5C 208.153,426.34 209.486,425.674 210.5,424.5C 211.167,424.5 211.833,424.5 212.5,424.5C 214.153,424.34 215.486,423.674 216.5,422.5C 219.006,421.25 221.673,420.584 224.5,420.5C 227.068,419.55 229.568,419.55 232,420.5C 232.513,419.473 233.013,418.473 233.5,417.5C 235.515,416.076 237.848,415.41 240.5,415.5C 241.833,362.004 242.5,308.171 242.5,254C 242.167,200.167 241.833,146.333 241.5,92.5C 240.893,92.6236 240.56,92.9569 240.5,93.5C 237.485,95.6744 234.151,97.3411 230.5,98.5C 228.973,98.427 227.973,99.0937 227.5,100.5C 224.696,102.405 221.696,104.071 218.5,105.5C 215.306,105.824 214.306,104.658 215.5,102C 214.437,100.812 213.103,100.312 211.5,100.5C 209.265,97.7089 207.265,94.7089 205.5,91.5C 205.557,90.391 205.89,89.391 206.5,88.5C 206.842,87.6618 207.508,87.3284 208.5,87.5C 210.749,86.9202 212.415,85.5869 213.5,83.5C 215.878,81.1223 218.545,79.1223 221.5,77.5C 222.833,77.5 223.5,76.8333 223.5,75.5C 224.167,75.1667 224.833,74.8333 225.5,74.5C 227.404,74.2624 228.738,73.2624 229.5,71.5C 231.649,69.5907 233.982,67.924 236.5,66.5C 237.5,66.1667 238.167,65.5 238.5,64.5C 240.027,64.573 241.027,63.9063 241.5,62.5C 243.632,62.4456 244.965,61.4456 245.5,59.5C 245.842,58.6618 246.508,58.3284 247.5,58.5C 252.997,57.5336 255.664,54.2003 255.5,48.5C 256.169,45.1511 257.836,42.4844 260.5,40.5 Z"/></g>
<g><path style="opacity:0.247" fill="#a19e9f" d="M 266.5,44.5 C 267.906,44.9731 268.573,45.9731 268.5,47.5C 267.094,47.0269 266.427,46.0269 266.5,44.5 Z"/></g>
<g><path style="opacity:0.031" fill="#b5b5b5" d="M 271.5,44.5 C 272.906,44.9731 273.573,45.9731 273.5,47.5C 272.094,47.0269 271.427,46.0269 271.5,44.5 Z"/></g>
<g><path style="opacity:0.957" fill="#484848" d="M 255.5,48.5 C 255.664,54.2003 252.997,57.5336 247.5,58.5C 249.123,56.049 251.289,54.049 254,52.5C 254.21,50.9419 254.71,49.6085 255.5,48.5 Z"/></g>
<g><path style="opacity:0.561" fill="#5d5d5d" d="M 297.5,49.5 C 298.163,51.4726 298.496,53.6392 298.5,56C 298.672,59.4774 298.006,62.644 296.5,65.5C 297.275,60.2032 297.608,54.8699 297.5,49.5 Z"/></g>
<g><path style="opacity:0.212" fill="#b5b5b5" d="M 273.5,55.5 C 274.906,55.9731 275.573,56.9731 275.5,58.5C 274.094,58.0269 273.427,57.0269 273.5,55.5 Z"/></g>
<g><path style="opacity:0.667" fill="#828282" d="M 281.5,60.5 C 283.048,60.8212 283.715,61.8212 283.5,63.5C 282.599,62.7095 281.932,61.7095 281.5,60.5 Z"/></g>
<g><path style="opacity:0.447" fill="#797979" d="M 245.5,59.5 C 244.965,61.4456 243.632,62.4456 241.5,62.5C 242.436,61.0256 243.77,60.0256 245.5,59.5 Z"/></g>
<g><path style="opacity:0.353" fill="#979797" d="M 241.5,62.5 C 241.027,63.9063 240.027,64.573 238.5,64.5C 238.973,63.0937 239.973,62.427 241.5,62.5 Z"/></g>
<g><path style="opacity:0.141" fill="#cbc8c8" d="M 238.5,64.5 C 238.167,65.5 237.5,66.1667 236.5,66.5C 236.5,65.1667 237.167,64.5 238.5,64.5 Z"/></g>
<g><path style="opacity:0.008" fill="#cecece" d="M 296.5,65.5 C 296.715,67.1788 296.048,68.1788 294.5,68.5C 294.932,67.2905 295.599,66.2905 296.5,65.5 Z"/></g>
<g><path style="opacity:0.298" fill="#898889" d="M 229.5,71.5 C 228.738,73.2624 227.404,74.2624 225.5,74.5C 226.262,72.7376 227.596,71.7376 229.5,71.5 Z"/></g>
<g><path style="opacity:0.62" fill="#7d7d7d" d="M 283.5,71.5 C 284.906,71.9731 285.573,72.9731 285.5,74.5C 284.094,74.0269 283.427,73.0269 283.5,71.5 Z"/></g>
<g><path style="opacity:0.431" fill="#aeaeae" d="M 223.5,75.5 C 223.5,76.8333 222.833,77.5 221.5,77.5C 221.833,76.5 222.5,75.8333 223.5,75.5 Z"/></g>
<g><path style="opacity:0.086" fill="#d4d4d4" d="M 284.5,76.5 C 283.01,78.2798 281.01,78.9465 278.5,78.5C 280.302,77.5418 282.302,76.8751 284.5,76.5 Z"/></g>
<g><path style="opacity:0.012" fill="#c9c9c9" d="M 267.5,78.5 C 267.027,79.9063 266.027,80.573 264.5,80.5C 264.973,79.0937 265.973,78.427 267.5,78.5 Z"/></g>
<g><path style="opacity:0.671" fill="#545454" d="M 213.5,83.5 C 212.415,85.5869 210.749,86.9202 208.5,87.5C 209.585,85.4131 211.251,84.0798 213.5,83.5 Z"/></g>
<g><path style="opacity:0.039" fill="#d2d2d2" d="M 206.5,88.5 C 205.89,89.391 205.557,90.391 205.5,91.5C 204.115,90.0527 204.448,89.0527 206.5,88.5 Z"/></g>
<g><path style="opacity:0.008" fill="#c2c2c2" d="M 230.5,98.5 C 230.027,99.9063 229.027,100.573 227.5,100.5C 227.973,99.0937 228.973,98.427 230.5,98.5 Z"/></g>
<g><path style="opacity:1" fill="#4f4f4f" d="M 211.5,100.5 C 213.103,100.312 214.437,100.812 215.5,102C 214.306,104.658 215.306,105.824 218.5,105.5C 217.399,106.598 216.066,106.765 214.5,106C 213.242,104.259 212.242,102.426 211.5,100.5 Z"/></g>
<g><path style="opacity:0.067" fill="#d2d2d2" d="M 240.5,93.5 C 240.56,92.9569 240.893,92.6236 241.5,92.5C 241.833,146.333 242.167,200.167 242.5,254C 242.5,308.171 241.833,362.004 240.5,415.5C 241.832,308.069 241.832,200.736 240.5,93.5 Z"/></g>
<g><path style="opacity:0.035" fill="#a5a5a5" d="M 260.5,82.5 C 260.169,193.237 260.502,303.904 261.5,414.5C 260.167,359.504 259.5,304.171 259.5,248.5C 259.5,192.999 259.833,137.666 260.5,82.5 Z"/></g>
<g><path style="opacity:0.884" fill="#585858" d="M 233.5,417.5 C 233.013,418.473 232.513,419.473 232,420.5C 229.568,419.55 227.068,419.55 224.5,420.5C 227.146,418.747 230.146,417.747 233.5,417.5 Z"/></g>
<g><path style="opacity:0.467" fill="#868686" d="M 216.5,422.5 C 215.486,423.674 214.153,424.34 212.5,424.5C 213.287,422.896 214.62,422.229 216.5,422.5 Z"/></g>
<g><path style="opacity:0.475" fill="#818181" d="M 210.5,424.5 C 209.486,425.674 208.153,426.34 206.5,426.5C 207.287,424.896 208.62,424.229 210.5,424.5 Z"/></g>
<g><path style="opacity:0.529" fill="#868686" d="M 204.5,426.5 C 203.486,427.674 202.153,428.34 200.5,428.5C 201.287,426.896 202.62,426.229 204.5,426.5 Z"/></g>
<g><path style="opacity:0.561" fill="#7d7d7d" d="M 198.5,428.5 C 196.898,430.074 194.898,430.741 192.5,430.5C 194.214,429.262 196.214,428.595 198.5,428.5 Z"/></g>
<g><path style="opacity:0.631" fill="#797979" d="M 192.5,430.5 C 190.898,432.074 188.898,432.741 186.5,432.5C 188.214,431.262 190.214,430.595 192.5,430.5 Z"/></g>
<g><path style="opacity:0.024" fill="#bfbfbf" d="M 275.5,436.5 C 274.209,436.263 273.209,436.596 272.5,437.5C 270.915,436.998 270.415,435.998 271,434.5C 272.622,435.099 274.122,435.766 275.5,436.5 Z"/></g>
<g><path style="opacity:0.863" fill="#4f4f4f" d="M 280.5,437.5 C 285.356,436.839 289.69,437.839 293.5,440.5C 289.015,439.66 284.681,438.66 280.5,437.5 Z"/></g>
<g><path style="opacity:0.514" fill="#9c9c9c" d="M 251.5,439.5 C 253.048,439.821 253.715,440.821 253.5,442.5C 252.599,441.71 251.932,440.71 251.5,439.5 Z"/></g>
<g><path style="opacity:0.376" fill="#666666" d="M 303.5,442.5 C 306.781,442.42 309.781,443.087 312.5,444.5C 309.219,444.58 306.219,443.913 303.5,442.5 Z"/></g>
<g><path style="opacity:0.682" fill="#5d5d5d" d="M 275.5,442.5 C 277.326,444.147 278.66,446.147 279.5,448.5C 277.178,447.198 275.845,445.198 275.5,442.5 Z"/></g>
<g><path style="opacity:0.004" fill="#d2d2d2" d="M 259.5,451.5 C 260.906,451.973 261.573,452.973 261.5,454.5C 260.094,454.027 259.427,453.027 259.5,451.5 Z"/></g>
<g><path style="opacity:0.898" fill="#5b5b5b" d="M 264.5,459.5 C 267.313,460.446 268.646,462.446 268.5,465.5C 267.193,463.54 265.86,461.54 264.5,459.5 Z"/></g>
<g><path style="opacity:0.259" fill="#878787" d="M 286.5,459.5 C 287.906,459.973 288.573,460.973 288.5,462.5C 287.094,462.027 286.427,461.027 286.5,459.5 Z"/></g>
<g><path style="opacity:0.188" fill="#b0b0b0" d="M 288.5,462.5 C 289.906,462.973 290.573,463.973 290.5,465.5C 289.094,465.027 288.427,464.027 288.5,462.5 Z"/></g>
<g><path style="opacity:0.306" fill="#aeaeae" d="M 290.5,465.5 C 291.906,465.973 292.573,466.973 292.5,468.5C 291.094,468.027 290.427,467.027 290.5,465.5 Z"/></g>
</svg>
